Coordinates
version=1
nRows=11
nColumns=63
inDegrees=yes

Units are S.I. units (second, meters, Newtons, ...)
If the header above contains a line with 'inDegrees', this indicates whether rotational values are in degrees (yes) or radians (no).

endheader
time	pelvis_tilt	pelvis_list	pelvis_rotation	pelvis_tx	pelvis_ty	pelvis_tz	hip_flexion_r	hip_adduction_r	hip_rotation_r	knee_angle_r	knee_angle_r_beta	ankle_angle_r	subtalar_angle_r	mtp_angle_r	hip_flexion_l	hip_adduction_l	hip_rotation_l	knee_angle_l	knee_angle_l_beta	ankle_angle_l	subtalar_angle_l	mtp_angle_l	L5_S1_Flex_Ext	L5_S1_Lat_Bending	L5_S1_axial_rotation	L4_L5_Flex_Ext	L4_L5_Lat_Bending	L4_L5_axial_rotation	L3_L4_Flex_Ext	L3_L4_Lat_Bending	L3_L4_axial_rotation	L2_L3_Flex_Ext	L2_L3_Lat_Bending	L2_L3_axial_rotation	L1_L2_Flex_Ext	L1_L2_Lat_Bending	L1_L2_axial_rotation	L1_T12_Flex_Ext	L1_T12_Lat_Bending	L1_T12_axial_rotation	Abs_r3	Abs_r2	Abs_r1	Abs_t1	Abs_t2	neck_flexion	neck_bending	neck_rotation	arm_flex_r	arm_add_r	arm_rot_r	elbow_flex_r	pro_sup_r	wrist_flex_r	wrist_dev_r	arm_flex_l	arm_add_l	arm_rot_l	elbow_flex_l	pro_sup_l	wrist_flex_l	wrist_dev_l
1.245614	2.365669	-6.151452	89.061212	0.151771	1.005312	0.556384	4.943947	-3.650708	-15.616651	10.743341	0.187507	21.364747	-7.345817	0.000000	1.130264	-5.746464	-14.915592	6.819207	0.119018	33.949696	13.276652	0.000000	-0.167025	0.502011	-0.360370	-0.310182	0.667675	-0.382893	-0.274405	1.220590	-0.382893	-0.190893	1.220590	-0.315324	-0.155099	1.023701	-0.292801	-0.095438	0.777615	-0.270278	-1.193042	5.678850	-2.004272	0.000000	0.000000	-4.996211	7.932642	2.196192	55.417879	-22.346367	35.605640	110.367581	89.687442	-23.092019	-0.163060	45.071505	-42.886787	25.559232	121.981570	88.562915	-22.911106	-16.668926
1.263158	2.514767	-5.992597	89.368043	0.150776	1.005167	0.556946	4.841599	-3.509538	-15.165613	10.912213	0.190454	21.214827	-8.373479	0.000000	1.208229	-5.905665	-14.579471	7.222390	0.126054	34.161556	13.303155	0.000000	-0.170072	0.508852	-0.292681	-0.315841	0.676773	-0.310974	-0.279412	1.237222	-0.310974	-0.194375	1.237222	-0.256096	-0.157929	1.037651	-0.237803	-0.097179	0.788211	-0.219511	-1.214808	5.756233	-1.627804	0.000000	0.000000	-5.837350	7.671160	1.896718	55.934916	-22.693430	35.505217	111.598529	90.585649	-23.626628	-1.291673	47.932132	-41.417972	27.679891	122.124906	88.531930	-23.015420	-16.632333
1.280702	2.677124	-5.882402	89.658124	0.149833	1.004922	0.557495	4.791402	-3.337624	-14.603023	11.052886	0.192909	21.116141	-9.495761	0.000000	1.333045	-6.076235	-14.151942	7.655687	0.133617	34.375413	13.117629	0.000000	-0.171673	0.521594	-0.256440	-0.318814	0.693720	-0.272467	-0.282041	1.268204	-0.272467	-0.196205	1.268204	-0.224385	-0.159415	1.063635	-0.208357	-0.098094	0.807949	-0.192330	-1.226242	5.900377	-1.426240	0.000000	0.000000	-6.603665	7.448738	1.991915	56.223086	-22.822091	35.321824	112.696879	90.615467	-23.672530	-2.131326	49.819671	-39.782966	28.842054	122.394993	88.473849	-22.785831	-16.139186
1.298246	2.852827	-5.791394	89.945417	0.148940	1.004638	0.558054	4.756320	-3.140194	-13.990312	11.155488	0.194700	21.050102	-10.681060	0.000000	1.476463	-6.257167	-13.630602	8.109741	0.141542	34.586061	12.737965	0.000000	-0.178947	0.539053	-0.245970	-0.332322	0.716940	-0.261343	-0.293992	1.310652	-0.261343	-0.204518	1.310652	-0.215224	-0.166170	1.099236	-0.199851	-0.102250	0.834992	-0.184478	-1.278199	6.097870	-1.368012	0.000000	0.000000	-7.232183	7.293277	2.346617	56.209801	-22.771373	35.031668	113.646149	89.991997	-23.530707	-2.807713	50.726144	-38.066314	29.106709	122.742413	88.438712	-22.394666	-15.256757
1.315789	3.025293	-5.756012	90.201243	0.148143	1.004302	0.558551	4.774963	-2.938637	-13.387788	11.223495	0.195887	21.009809	-11.835205	0.000000	1.661629	-6.430493	-13.039959	8.560464	0.149408	34.774861	12.178245	0.000000	-0.186380	0.560033	-0.256594	-0.346127	0.744844	-0.272631	-0.306204	1.361665	-0.272631	-0.213014	1.361665	-0.224520	-0.173073	1.142020	-0.208483	-0.106498	0.867492	-0.192446	-1.331297	6.335210	-1.427100	0.000000	0.000000	-7.767429	7.190704	2.985319	55.809852	-22.558732	34.591694	114.459909	89.412709	-23.329776	-3.231988	50.580113	-36.358580	28.528114	123.108668	88.436533	-22.064461	-14.353552
1.333333	3.179419	-5.778297	90.405650	0.147499	1.003955	0.558949	4.851099	-2.750419	-12.823139	11.263629	0.196587	20.979068	-12.911982	0.000000	1.879654	-6.582504	-12.408894	8.982231	0.156770	34.925651	11.487468	0.000000	-0.194440	0.581330	-0.273187	-0.361095	0.773169	-0.290261	-0.319446	1.413446	-0.290261	-0.222226	1.413446	-0.239039	-0.180557	1.185448	-0.221965	-0.111103	0.900480	-0.204890	-1.388866	6.576123	-1.519385	0.000000	0.000000	-8.185586	7.160249	3.755713	54.919194	-22.236699	33.879709	115.169935	89.182749	-23.100809	-3.335715	49.472542	-34.703798	27.276719	123.433910	88.467602	-21.839748	-13.643059
1.350877	3.300882	-5.862273	90.544732	0.147030	1.003622	0.559206	4.989165	-2.590195	-12.303209	11.282238	0.196912	20.941522	-13.900367	0.000000	2.126164	-6.698896	-11.761412	9.349153	0.163174	35.023140	10.721286	0.000000	-0.202476	0.600122	-0.284808	-0.376017	0.798162	-0.302608	-0.332647	1.459137	-0.302608	-0.231409	1.459137	-0.249207	-0.188019	1.223769	-0.231406	-0.115695	0.929589	-0.213606	-1.446263	6.788700	-1.584015	0.000000	0.000000	-8.451357	7.221794	4.532922	53.485982	-21.866683	32.848011	115.780768	89.204597	-22.925642	-3.204510	47.483870	-33.110996	25.455151	123.700540	88.534887	-21.552588	-13.205811
1.368421	3.376031	-6.004972	90.589605	0.146769	1.003324	0.559308	5.199566	-2.475402	-11.838531	11.311160	0.197417	20.904160	-14.757028	0.000000	2.394729	-6.767391	-11.161702	9.647008	0.168372	35.073659	9.958062	0.000000	-0.210224	0.613541	-0.272309	-0.390407	0.816010	-0.289328	-0.345377	1.491764	-0.289328	-0.240265	1.491764	-0.238270	-0.195214	1.251133	-0.221251	-0.120122	0.950375	-0.204232	-1.501610	6.940499	-1.514501	0.000000	0.000000	-8.511429	7.370802	5.150866	51.460899	-21.535375	31.402986	116.335391	89.204169	-22.776871	-2.822831	44.829241	-31.577085	23.364874	123.870574	88.634718	-21.403656	-13.074948
1.385965	3.396248	-6.206206	90.539597	0.146729	1.003047	0.559193	5.474862	-2.414095	-11.423327	11.358234	0.198239	20.881666	-15.460645	0.000000	2.677474	-6.778128	-10.608013	9.848744	0.171893	35.081848	9.233996	0.000000	-0.215220	0.619957	-0.235497	-0.399684	0.824543	-0.250216	-0.353584	1.507364	-0.250216	-0.245974	1.507364	-0.206060	-0.199853	1.264217	-0.191341	-0.122976	0.960314	-0.176623	-1.537292	7.013082	-1.309765	0.000000	0.000000	-8.361767	7.554391	5.505193	48.878829	-21.276382	29.561802	116.794376	89.054522	-22.677382	-2.201855	41.598221	-30.120451	21.132240	123.947637	88.670418	-21.414663	-13.201717
1.403509	3.353850	-6.456715	90.409128	0.146871	1.002802	0.558924	5.804602	-2.416988	-11.091651	11.428901	0.199472	20.839255	-16.018228	0.000000	2.977189	-6.722486	-10.111156	9.953969	0.173730	35.066215	8.587424	0.000000	-0.218561	0.619372	-0.183677	-0.405889	0.823765	-0.195157	-0.359074	1.505942	-0.195157	-0.249793	1.505942	-0.160718	-0.202956	1.263024	-0.149238	-0.124886	0.959408	-0.137758	-1.561158	7.006463	-1.021558	0.000000	0.000000	-7.977101	7.719435	5.659332	45.831624	-21.061690	27.357934	117.076283	88.793480	-22.518903	-1.364491	37.833369	-28.721863	18.707945	123.969129	88.604525	-21.308834	-13.224218
1.421053	3.250820	-6.745155	90.210992	0.147189	1.002559	0.558489	6.169055	-2.484584	-10.861044	11.525711	0.201162	20.796067	-16.408463	0.000000	3.281372	-6.602759	-9.705155	9.956616	0.173776	35.051453	8.090701	0.000000	-0.219707	0.613470	-0.134844	-0.408017	0.815914	-0.143272	-0.360956	1.491590	-0.143272	-0.251103	1.491590	-0.117989	-0.204020	1.250987	-0.109561	-0.125540	0.950264	-0.101133	-1.569343	6.939690	-0.749962	0.000000	0.000000	-7.423236	7.790586	5.787905	42.492703	-20.843521	24.962106	117.078165	88.474754	-22.269846	-0.217933	33.530148	-27.404828	16.034535	123.971608	88.484293	-20.976323	-12.882042
